<svg width="20" height="20" viewBox="0 0 20 20" fill="none" xmlns="http://www.w3.org/2000/svg">
<path fill-rule="evenodd" clip-rule="evenodd" d="M10.0018 19.9993C15.5241 19.9993 20 15.5233 20 10.0011C20 4.47886 15.5241 0.00292969 10.0018 0.00292969C4.4796 0.00292969 0.00366211 4.47886 0.00366211 10.0011C0.00366211 15.5233 4.4796 19.9993 10.0018 19.9993ZM10.6004 5.51105C10.6004 4.97868 10.1689 4.54712 9.6365 4.54712C9.10414 4.54712 8.67257 4.97868 8.67257 5.51105V10.7501C8.67257 11.0896 8.85113 11.404 9.14266 11.5779L13.2176 14.0088C13.6748 14.2816 14.2665 14.132 14.5393 13.6748C14.812 13.2176 14.6625 12.6259 14.2053 12.3532L10.6004 10.2027V5.51105Z" fill="#944EF5"/>
</svg>
