<svg width="20" height="20" viewBox="24 11 20 20" fill="none" xmlns="http://www.w3.org/2000/svg">
<path fill-rule="evenodd" clip-rule="evenodd" d="M34.0001 31.0001C39.5233 31.0001 44.0001 26.5233 44.0001 21.0001C44.0001 15.4768 39.5233 11 34.0001 11C28.4768 11 24 15.4768 24 21.0001C24 26.5233 28.4768 31.0001 34.0001 31.0001ZM34.8909 26.626H33.2419V25.5165C32.5225 25.3751 31.9284 25.0618 31.4595 24.5768C30.9947 24.0918 30.7078 23.4815 30.5986 22.7459L32.2355 22.4913C32.3446 22.9682 32.573 23.3481 32.9206 23.6311C33.2722 23.914 33.6905 24.0554 34.1755 24.0554C34.6323 24.0554 35.0102 23.9483 35.3092 23.7341C35.6124 23.5199 35.7639 23.2552 35.7639 22.9399C35.7639 22.5358 35.4931 22.2447 34.9516 22.0669L32.7933 21.4C31.5484 21.0161 30.926 20.2562 30.926 19.1205C30.926 18.4375 31.1321 17.8716 31.5444 17.423C31.9566 16.9744 32.5225 16.6914 33.2419 16.5742V15.483H34.8909V16.6106C35.5174 16.748 36.0388 17.0269 36.4551 17.4472C36.8754 17.8635 37.1705 18.4051 37.3402 19.072L35.6427 19.3751C35.5578 18.9871 35.3658 18.6739 35.0667 18.4354C34.7717 18.1929 34.414 18.0656 33.9937 18.0535C33.5935 18.0414 33.254 18.1303 32.9752 18.3202C32.7003 18.5102 32.5629 18.7487 32.5629 19.0356C32.5629 19.2458 32.6518 19.4277 32.8297 19.5813C33.0075 19.7308 33.2904 19.8601 33.6784 19.9693L35.2183 20.4058C35.9903 20.6281 36.546 20.9292 36.8855 21.3091C37.2291 21.689 37.4008 22.1922 37.4008 22.8187C37.4008 23.526 37.1725 24.1221 36.7158 24.6071C36.259 25.0881 35.6508 25.3953 34.8909 25.5286V26.626Z" fill="#944EF5"/>
</svg>
