<svg width="18" height="18" viewBox="0 0 18 18" fill="none" xmlns="http://www.w3.org/2000/svg">
    <path d="M10.5 9C10.5 9.82843 9.82843 10.5 9 10.5C8.17157 10.5 7.5 9.82843 7.5 9C7.5 8.17157 8.17157 7.5 9 7.5C9.82843 7.5 10.5 8.17157 10.5 9ZM8.26926 9C8.26926 9.40358 8.59642 9.73074 9 9.73074C9.40358 9.73074 9.73074 9.40358 9.73074 9C9.73074 8.59642 9.40358 8.26926 9 8.26926C8.59642 8.26926 8.26926 8.59642 8.26926 9Z" fill="#948AC5"/>
    <path d="M10.625 4.5C10.625 5.48644 10.4109 6.3609 10.0833 6.97518C9.74712 7.60558 9.34637 7.875 9 7.875C8.65363 7.875 8.25288 7.60558 7.91667 6.97518C7.58905 6.3609 7.375 5.48644 7.375 4.5C7.375 3.51356 7.58905 2.6391 7.91667 2.02482C8.25288 1.39442 8.65363 1.125 9 1.125C9.34637 1.125 9.74712 1.39442 10.0833 2.02482C10.4109 2.6391 10.625 3.51356 10.625 4.5Z" fill="#948AC5" stroke="#948AC5" stroke-width="0.75"/>
    <path d="M12.2696 12.8334C11.412 12.3401 10.7593 11.7171 10.3898 11.1257C10.0107 10.5188 9.97774 10.0362 10.1519 9.73562C10.3262 9.435 10.762 9.22215 11.4792 9.24583C12.178 9.26891 13.0458 9.52061 13.9034 10.0139C14.761 10.5072 15.4137 11.1302 15.7832 11.7216C16.1623 12.3285 16.1953 12.811 16.0211 13.1117C15.8469 13.4123 15.411 13.6251 14.6938 13.6014C13.995 13.5784 13.1272 13.3267 12.2696 12.8334Z" fill="#948AC5" stroke="#948AC5" stroke-width="0.75"/>
    <path d="M5.62143 12.8313C6.47909 12.3379 7.13201 11.7152 7.50173 11.1241C7.88123 10.5175 7.91418 10.0357 7.74052 9.73604C7.56686 9.43636 7.13162 9.22391 6.41454 9.24802C5.71593 9.27151 4.84816 9.52349 3.99049 10.0168C3.13282 10.5102 2.4799 11.1329 2.11018 11.724C1.73068 12.3306 1.69773 12.8124 1.87139 13.1121C2.04506 13.4118 2.48029 13.6242 3.19738 13.6001C3.89598 13.5766 4.76376 13.3246 5.62143 12.8313Z" fill="#948AC5" stroke="#948AC5" stroke-width="0.75"/>
</svg>
