<svg width="18" height="18" viewBox="0 0 18 18" fill="none" xmlns="http://www.w3.org/2000/svg">
    <path fill-rule="evenodd" clip-rule="evenodd" d="M9.00126 16.0025C12.8682 16.0025 16.0025 12.8682 16.0025 9.00126C16.0025 5.1343 12.8682 2 9.00126 2C5.1343 2 2 5.1343 2 9.00126C2 12.8682 5.1343 16.0025 9.00126 16.0025ZM9.49539 5.85704C9.49539 5.44283 9.1596 5.10704 8.74539 5.10704C8.33118 5.10704 7.99539 5.44283 7.99539 5.85704V9.52571C7.99539 9.78983 8.13432 10.0345 8.36115 10.1698L11.2146 11.8721C11.5704 12.0843 12.0308 11.9679 12.243 11.6122C12.4552 11.2565 12.3388 10.7961 11.9831 10.5839L9.49539 9.0998V5.85704Z" fill="#948AC5"/>
</svg>
