<svg width="18" height="18" viewBox="0 0 18 18" fill="none" xmlns="http://www.w3.org/2000/svg">
    <path fill-rule="evenodd" clip-rule="evenodd" d="M9 16C12.8663 16 16 12.8663 16 9C16 5.13373 12.8663 2 9 2C5.13373 2 2 5.13373 2 9C2 12.8663 5.13373 16 9 16ZM9.62385 12.9389H8.46955V12.1623C7.96595 12.0633 7.55006 11.844 7.22188 11.5045C6.89652 11.165 6.69565 10.7378 6.61926 10.2229L7.76508 10.0447C7.84147 10.3785 8.00132 10.6445 8.24463 10.8425C8.49077 11.0405 8.78359 11.1396 9.12309 11.1396C9.44279 11.1396 9.70732 11.0646 9.91668 10.9146C10.1289 10.7647 10.235 10.5794 10.235 10.3587C10.235 10.0758 10.0454 9.87209 9.66629 9.7476L8.15551 9.28079C7.28412 9.01202 6.84843 8.48013 6.84843 7.68513C6.84843 7.207 6.99271 6.81091 7.28129 6.49687C7.56987 6.18283 7.96595 5.98479 8.46955 5.90275V5.13887H9.62385V5.92821C10.0624 6.0244 10.4273 6.21961 10.7187 6.51385C11.013 6.80525 11.2195 7.18436 11.3383 7.65118L10.1501 7.86337C10.0907 7.59177 9.95628 7.37251 9.74692 7.20558C9.54039 7.03583 9.29001 6.94671 8.99578 6.93823C8.71569 6.92974 8.47804 6.99198 8.28282 7.12495C8.09044 7.25792 7.99425 7.42485 7.99425 7.62572C7.99425 7.77283 8.05649 7.90015 8.18097 8.00766C8.30546 8.11234 8.5035 8.20287 8.7751 8.27926L9.85302 8.58481C10.3934 8.74042 10.7824 8.95119 11.0201 9.21713C11.2605 9.48308 11.3808 9.83531 11.3808 10.2738C11.3808 10.7689 11.2209 11.1862 10.9012 11.5257C10.5815 11.8624 10.1557 12.0774 9.62385 12.1708V12.9389Z" fill="#948AC5"/>
</svg>
