<svg width="20" height="20" viewBox="0 0 20 20" fill="none" xmlns="http://www.w3.org/2000/svg">
<path fill-rule="evenodd" clip-rule="evenodd" d="M10.6021 2.53032C10.6042 2.54551 10.6068 2.56083 10.61 2.57627V2.57628C10.6726 2.88271 10.9351 3.23926 11.1689 3.55565L11.2434 3.65658C11.6584 4.2222 12.2452 4.61831 12.8663 5.03755L12.8682 5.03886L12.8686 5.0391C13.7016 5.60154 14.5639 6.18373 15.0659 7.21998C15.386 7.87973 15.5338 8.58133 15.4935 9.24969C15.43 10.291 15.1026 11.3434 14.609 12.1755C14.5969 12.1964 14.5834 12.2149 14.5687 12.2321C14.4295 12.4611 14.2841 12.6802 14.1204 12.8672C13.8968 13.122 13.5108 13.1491 13.2591 12.9226C13.005 12.6986 12.9806 12.3097 13.2042 12.0549C13.2685 11.9807 13.326 11.8927 13.3833 11.8048L13.3833 11.8048L13.3834 11.8047C13.4021 11.7759 13.4209 11.7471 13.4399 11.7188C13.0273 9.6191 11.5276 8.71913 10.61 8.36538L10.6082 8.36469V15.5382C10.6082 16.8959 9.2375 18 7.55409 18C5.87068 18 4.5 16.8959 4.5 15.5382C4.5 14.1806 5.87068 13.0765 7.55409 13.0765C8.24431 13.0765 8.87468 13.2685 9.38654 13.5811V2.61402C9.38654 2.2903 9.63454 2.0232 9.9546 2.00105C10.2698 1.98258 10.5581 2.2103 10.6021 2.53032Z" fill="#948AC5"/>
</svg>
